<svg width="550" height="360" viewBox="0 0 550 360" xmlns="http://www.w3.org/2000/svg">
<rect x="0" y="0" width="550" height="360" opacity="1" fill="#FFFFFF" stroke="none"/>
<line opacity="0.1" stroke="#000000" stroke-width="1" x1="46" y1="314" x2="46" y2="5"/>
<line opacity="0.1" stroke="#000000" stroke-width="1" x1="54" y1="314" x2="54" y2="5"/>
<line opacity="0.1" stroke="#000000" stroke-width="1" x1="62" y1="314" x2="62" y2="5"/>
<line opacity="0.1" stroke="#000000" stroke-width="1" x1="70" y1="314" x2="70" y2="5"/>
<line opacity="0.1" stroke="#000000" stroke-width="1" x1="78" y1="314" x2="78" y2="5"/>
<line opacity="0.1" stroke="#000000" stroke-width="1" x1="86" y1="314" x2="86" y2="5"/>
<line opacity="0.1" stroke="#000000" stroke-width="1" x1="94" y1="314" x2="94" y2="5"/>
<line opacity="0.1" stroke="#000000" stroke-width="1" x1="103" y1="314" x2="103" y2="5"/>
<line opacity="0.1" stroke="#000000" stroke-width="1" x1="111" y1="314" x2="111" y2="5"/>
<line opacity="0.1" stroke="#000000" stroke-width="1" x1="119" y1="314" x2="119" y2="5"/>
<line opacity="0.1" stroke="#000000" stroke-width="1" x1="127" y1="314" x2="127" y2="5"/>
<line opacity="0.1" stroke="#000000" stroke-width="1" x1="135" y1="314" x2="135" y2="5"/>
<line opacity="0.1" stroke="#000000" stroke-width="1" x1="143" y1="314" x2="143" y2="5"/>
<line opacity="0.1" stroke="#000000" stroke-width="1" x1="151" y1="314" x2="151" y2="5"/>
<line opacity="0.1" stroke="#000000" stroke-width="1" x1="159" y1="314" x2="159" y2="5"/>
<line opacity="0.1" stroke="#000000" stroke-width="1" x1="168" y1="314" x2="168" y2="5"/>
<line opacity="0.1" stroke="#000000" stroke-width="1" x1="176" y1="314" x2="176" y2="5"/>
<line opacity="0.1" stroke="#000000" stroke-width="1" x1="184" y1="314" x2="184" y2="5"/>
<line opacity="0.1" stroke="#000000" stroke-width="1" x1="192" y1="314" x2="192" y2="5"/>
<line opacity="0.1" stroke="#000000" stroke-width="1" x1="200" y1="314" x2="200" y2="5"/>
<line opacity="0.1" stroke="#000000" stroke-width="1" x1="208" y1="314" x2="208" y2="5"/>
<line opacity="0.1" stroke="#000000" stroke-width="1" x1="216" y1="314" x2="216" y2="5"/>
<line opacity="0.1" stroke="#000000" stroke-width="1" x1="224" y1="314" x2="224" y2="5"/>
<line opacity="0.1" stroke="#000000" stroke-width="1" x1="233" y1="314" x2="233" y2="5"/>
<line opacity="0.1" stroke="#000000" stroke-width="1" x1="241" y1="314" x2="241" y2="5"/>
<line opacity="0.1" stroke="#000000" stroke-width="1" x1="249" y1="314" x2="249" y2="5"/>
<line opacity="0.1" stroke="#000000" stroke-width="1" x1="257" y1="314" x2="257" y2="5"/>
<line opacity="0.1" stroke="#000000" stroke-width="1" x1="265" y1="314" x2="265" y2="5"/>
<line opacity="0.1" stroke="#000000" stroke-width="1" x1="273" y1="314" x2="273" y2="5"/>
<line opacity="0.1" stroke="#000000" stroke-width="1" x1="281" y1="314" x2="281" y2="5"/>
<line opacity="0.1" stroke="#000000" stroke-width="1" x1="289" y1="314" x2="289" y2="5"/>
<line opacity="0.1" stroke="#000000" stroke-width="1" x1="298" y1="314" x2="298" y2="5"/>
<line opacity="0.1" stroke="#000000" stroke-width="1" x1="306" y1="314" x2="306" y2="5"/>
<line opacity="0.1" stroke="#000000" stroke-width="1" x1="314" y1="314" x2="314" y2="5"/>
<line opacity="0.1" stroke="#000000" stroke-width="1" x1="322" y1="314" x2="322" y2="5"/>
<line opacity="0.1" stroke="#000000" stroke-width="1" x1="330" y1="314" x2="330" y2="5"/>
<line opacity="0.1" stroke="#000000" stroke-width="1" x1="338" y1="314" x2="338" y2="5"/>
<line opacity="0.1" stroke="#000000" stroke-width="1" x1="346" y1="314" x2="346" y2="5"/>
<line opacity="0.1" stroke="#000000" stroke-width="1" x1="354" y1="314" x2="354" y2="5"/>
<line opacity="0.1" stroke="#000000" stroke-width="1" x1="363" y1="314" x2="363" y2="5"/>
<line opacity="0.1" stroke="#000000" stroke-width="1" x1="371" y1="314" x2="371" y2="5"/>
<line opacity="0.1" stroke="#000000" stroke-width="1" x1="379" y1="314" x2="379" y2="5"/>
<line opacity="0.1" stroke="#000000" stroke-width="1" x1="387" y1="314" x2="387" y2="5"/>
<line opacity="0.1" stroke="#000000" stroke-width="1" x1="395" y1="314" x2="395" y2="5"/>
<line opacity="0.1" stroke="#000000" stroke-width="1" x1="403" y1="314" x2="403" y2="5"/>
<line opacity="0.1" stroke="#000000" stroke-width="1" x1="411" y1="314" x2="411" y2="5"/>
<line opacity="0.1" stroke="#000000" stroke-width="1" x1="419" y1="314" x2="419" y2="5"/>
<line opacity="0.1" stroke="#000000" stroke-width="1" x1="428" y1="314" x2="428" y2="5"/>
<line opacity="0.1" stroke="#000000" stroke-width="1" x1="436" y1="314" x2="436" y2="5"/>
<line opacity="0.1" stroke="#000000" stroke-width="1" x1="444" y1="314" x2="444" y2="5"/>
<line opacity="0.1" stroke="#000000" stroke-width="1" x1="452" y1="314" x2="452" y2="5"/>
<line opacity="0.1" stroke="#000000" stroke-width="1" x1="460" y1="314" x2="460" y2="5"/>
<line opacity="0.1" stroke="#000000" stroke-width="1" x1="468" y1="314" x2="468" y2="5"/>
<line opacity="0.1" stroke="#000000" stroke-width="1" x1="476" y1="314" x2="476" y2="5"/>
<line opacity="0.1" stroke="#000000" stroke-width="1" x1="484" y1="314" x2="484" y2="5"/>
<line opacity="0.1" stroke="#000000" stroke-width="1" x1="493" y1="314" x2="493" y2="5"/>
<line opacity="0.1" stroke="#000000" stroke-width="1" x1="501" y1="314" x2="501" y2="5"/>
<line opacity="0.1" stroke="#000000" stroke-width="1" x1="45" y1="314" x2="504" y2="314"/>
<line opacity="0.1" stroke="#000000" stroke-width="1" x1="45" y1="311" x2="504" y2="311"/>
<line opacity="0.1" stroke="#000000" stroke-width="1" x1="45" y1="308" x2="504" y2="308"/>
<line opacity="0.1" stroke="#000000" stroke-width="1" x1="45" y1="305" x2="504" y2="305"/>
<line opacity="0.1" stroke="#000000" stroke-width="1" x1="45" y1="302" x2="504" y2="302"/>
<line opacity="0.1" stroke="#000000" stroke-width="1" x1="45" y1="299" x2="504" y2="299"/>
<line opacity="0.1" stroke="#000000" stroke-width="1" x1="45" y1="296" x2="504" y2="296"/>
<line opacity="0.1" stroke="#000000" stroke-width="1" x1="45" y1="293" x2="504" y2="293"/>
<line opacity="0.1" stroke="#000000" stroke-width="1" x1="45" y1="290" x2="504" y2="290"/>
<line opacity="0.1" stroke="#000000" stroke-width="1" x1="45" y1="287" x2="504" y2="287"/>
<line opacity="0.1" stroke="#000000" stroke-width="1" x1="45" y1="284" x2="504" y2="284"/>
<line opacity="0.1" stroke="#000000" stroke-width="1" x1="45" y1="281" x2="504" y2="281"/>
<line opacity="0.1" stroke="#000000" stroke-width="1" x1="45" y1="277" x2="504" y2="277"/>
<line opacity="0.1" stroke="#000000" stroke-width="1" x1="45" y1="274" x2="504" y2="274"/>
<line opacity="0.1" stroke="#000000" stroke-width="1" x1="45" y1="271" x2="504" y2="271"/>
<line opacity="0.1" stroke="#000000" stroke-width="1" x1="45" y1="268" x2="504" y2="268"/>
<line opacity="0.1" stroke="#000000" stroke-width="1" x1="45" y1="265" x2="504" y2="265"/>
<line opacity="0.1" stroke="#000000" stroke-width="1" x1="45" y1="262" x2="504" y2="262"/>
<line opacity="0.1" stroke="#000000" stroke-width="1" x1="45" y1="259" x2="504" y2="259"/>
<line opacity="0.1" stroke="#000000" stroke-width="1" x1="45" y1="256" x2="504" y2="256"/>
<line opacity="0.1" stroke="#000000" stroke-width="1" x1="45" y1="253" x2="504" y2="253"/>
<line opacity="0.1" stroke="#000000" stroke-width="1" x1="45" y1="250" x2="504" y2="250"/>
<line opacity="0.1" stroke="#000000" stroke-width="1" x1="45" y1="247" x2="504" y2="247"/>
<line opacity="0.1" stroke="#000000" stroke-width="1" x1="45" y1="243" x2="504" y2="243"/>
<line opacity="0.1" stroke="#000000" stroke-width="1" x1="45" y1="240" x2="504" y2="240"/>
<line opacity="0.1" stroke="#000000" stroke-width="1" x1="45" y1="237" x2="504" y2="237"/>
<line opacity="0.1" stroke="#000000" stroke-width="1" x1="45" y1="234" x2="504" y2="234"/>
<line opacity="0.1" stroke="#000000" stroke-width="1" x1="45" y1="231" x2="504" y2="231"/>
<line opacity="0.1" stroke="#000000" stroke-width="1" x1="45" y1="228" x2="504" y2="228"/>
<line opacity="0.1" stroke="#000000" stroke-width="1" x1="45" y1="225" x2="504" y2="225"/>
<line opacity="0.1" stroke="#000000" stroke-width="1" x1="45" y1="222" x2="504" y2="222"/>
<line opacity="0.1" stroke="#000000" stroke-width="1" x1="45" y1="219" x2="504" y2="219"/>
<line opacity="0.1" stroke="#000000" stroke-width="1" x1="45" y1="216" x2="504" y2="216"/>
<line opacity="0.1" stroke="#000000" stroke-width="1" x1="45" y1="213" x2="504" y2="213"/>
<line opacity="0.1" stroke="#000000" stroke-width="1" x1="45" y1="209" x2="504" y2="209"/>
<line opacity="0.1" stroke="#000000" stroke-width="1" x1="45" y1="206" x2="504" y2="206"/>
<line opacity="0.1" stroke="#000000" stroke-width="1" x1="45" y1="203" x2="504" y2="203"/>
<line opacity="0.1" stroke="#000000" stroke-width="1" x1="45" y1="200" x2="504" y2="200"/>
<line opacity="0.1" stroke="#000000" stroke-width="1" x1="45" y1="197" x2="504" y2="197"/>
<line opacity="0.1" stroke="#000000" stroke-width="1" x1="45" y1="194" x2="504" y2="194"/>
<line opacity="0.1" stroke="#000000" stroke-width="1" x1="45" y1="191" x2="504" y2="191"/>
<line opacity="0.1" stroke="#000000" stroke-width="1" x1="45" y1="188" x2="504" y2="188"/>
<line opacity="0.1" stroke="#000000" stroke-width="1" x1="45" y1="185" x2="504" y2="185"/>
<line opacity="0.1" stroke="#000000" stroke-width="1" x1="45" y1="182" x2="504" y2="182"/>
<line opacity="0.1" stroke="#000000" stroke-width="1" x1="45" y1="179" x2="504" y2="179"/>
<line opacity="0.1" stroke="#000000" stroke-width="1" x1="45" y1="175" x2="504" y2="175"/>
<line opacity="0.1" stroke="#000000" stroke-width="1" x1="45" y1="172" x2="504" y2="172"/>
<line opacity="0.1" stroke="#000000" stroke-width="1" x1="45" y1="169" x2="504" y2="169"/>
<line opacity="0.1" stroke="#000000" stroke-width="1" x1="45" y1="166" x2="504" y2="166"/>
<line opacity="0.1" stroke="#000000" stroke-width="1" x1="45" y1="163" x2="504" y2="163"/>
<line opacity="0.1" stroke="#000000" stroke-width="1" x1="45" y1="160" x2="504" y2="160"/>
<line opacity="0.1" stroke="#000000" stroke-width="1" x1="45" y1="157" x2="504" y2="157"/>
<line opacity="0.1" stroke="#000000" stroke-width="1" x1="45" y1="154" x2="504" y2="154"/>
<line opacity="0.1" stroke="#000000" stroke-width="1" x1="45" y1="151" x2="504" y2="151"/>
<line opacity="0.1" stroke="#000000" stroke-width="1" x1="45" y1="148" x2="504" y2="148"/>
<line opacity="0.1" stroke="#000000" stroke-width="1" x1="45" y1="145" x2="504" y2="145"/>
<line opacity="0.1" stroke="#000000" stroke-width="1" x1="45" y1="141" x2="504" y2="141"/>
<line opacity="0.1" stroke="#000000" stroke-width="1" x1="45" y1="138" x2="504" y2="138"/>
<line opacity="0.1" stroke="#000000" stroke-width="1" x1="45" y1="135" x2="504" y2="135"/>
<line opacity="0.1" stroke="#000000" stroke-width="1" x1="45" y1="132" x2="504" y2="132"/>
<line opacity="0.1" stroke="#000000" stroke-width="1" x1="45" y1="129" x2="504" y2="129"/>
<line opacity="0.1" stroke="#000000" stroke-width="1" x1="45" y1="126" x2="504" y2="126"/>
<line opacity="0.1" stroke="#000000" stroke-width="1" x1="45" y1="123" x2="504" y2="123"/>
<line opacity="0.1" stroke="#000000" stroke-width="1" x1="45" y1="120" x2="504" y2="120"/>
<line opacity="0.1" stroke="#000000" stroke-width="1" x1="45" y1="117" x2="504" y2="117"/>
<line opacity="0.1" stroke="#000000" stroke-width="1" x1="45" y1="114" x2="504" y2="114"/>
<line opacity="0.1" stroke="#000000" stroke-width="1" x1="45" y1="111" x2="504" y2="111"/>
<line opacity="0.1" stroke="#000000" stroke-width="1" x1="45" y1="107" x2="504" y2="107"/>
<line opacity="0.1" stroke="#000000" stroke-width="1" x1="45" y1="104" x2="504" y2="104"/>
<line opacity="0.1" stroke="#000000" stroke-width="1" x1="45" y1="101" x2="504" y2="101"/>
<line opacity="0.1" stroke="#000000" stroke-width="1" x1="45" y1="98" x2="504" y2="98"/>
<line opacity="0.1" stroke="#000000" stroke-width="1" x1="45" y1="95" x2="504" y2="95"/>
<line opacity="0.1" stroke="#000000" stroke-width="1" x1="45" y1="92" x2="504" y2="92"/>
<line opacity="0.1" stroke="#000000" stroke-width="1" x1="45" y1="89" x2="504" y2="89"/>
<line opacity="0.1" stroke="#000000" stroke-width="1" x1="45" y1="86" x2="504" y2="86"/>
<line opacity="0.1" stroke="#000000" stroke-width="1" x1="45" y1="83" x2="504" y2="83"/>
<line opacity="0.1" stroke="#000000" stroke-width="1" x1="45" y1="80" x2="504" y2="80"/>
<line opacity="0.1" stroke="#000000" stroke-width="1" x1="45" y1="77" x2="504" y2="77"/>
<line opacity="0.1" stroke="#000000" stroke-width="1" x1="45" y1="73" x2="504" y2="73"/>
<line opacity="0.1" stroke="#000000" stroke-width="1" x1="45" y1="70" x2="504" y2="70"/>
<line opacity="0.1" stroke="#000000" stroke-width="1" x1="45" y1="67" x2="504" y2="67"/>
<line opacity="0.1" stroke="#000000" stroke-width="1" x1="45" y1="64" x2="504" y2="64"/>
<line opacity="0.1" stroke="#000000" stroke-width="1" x1="45" y1="61" x2="504" y2="61"/>
<line opacity="0.1" stroke="#000000" stroke-width="1" x1="45" y1="58" x2="504" y2="58"/>
<line opacity="0.1" stroke="#000000" stroke-width="1" x1="45" y1="55" x2="504" y2="55"/>
<line opacity="0.1" stroke="#000000" stroke-width="1" x1="45" y1="52" x2="504" y2="52"/>
<line opacity="0.1" stroke="#000000" stroke-width="1" x1="45" y1="49" x2="504" y2="49"/>
<line opacity="0.1" stroke="#000000" stroke-width="1" x1="45" y1="46" x2="504" y2="46"/>
<line opacity="0.1" stroke="#000000" stroke-width="1" x1="45" y1="43" x2="504" y2="43"/>
<line opacity="0.1" stroke="#000000" stroke-width="1" x1="45" y1="39" x2="504" y2="39"/>
<line opacity="0.1" stroke="#000000" stroke-width="1" x1="45" y1="36" x2="504" y2="36"/>
<line opacity="0.1" stroke="#000000" stroke-width="1" x1="45" y1="33" x2="504" y2="33"/>
<line opacity="0.1" stroke="#000000" stroke-width="1" x1="45" y1="30" x2="504" y2="30"/>
<line opacity="0.1" stroke="#000000" stroke-width="1" x1="45" y1="27" x2="504" y2="27"/>
<line opacity="0.1" stroke="#000000" stroke-width="1" x1="45" y1="24" x2="504" y2="24"/>
<line opacity="0.1" stroke="#000000" stroke-width="1" x1="45" y1="21" x2="504" y2="21"/>
<line opacity="0.1" stroke="#000000" stroke-width="1" x1="45" y1="18" x2="504" y2="18"/>
<line opacity="0.1" stroke="#000000" stroke-width="1" x1="45" y1="15" x2="504" y2="15"/>
<line opacity="0.1" stroke="#000000" stroke-width="1" x1="45" y1="12" x2="504" y2="12"/>
<line opacity="0.1" stroke="#000000" stroke-width="1" x1="45" y1="9" x2="504" y2="9"/>
<line opacity="0.1" stroke="#000000" stroke-width="1" x1="45" y1="5" x2="504" y2="5"/>
<text x="5" y="160" dy="0.76em" text-anchor="middle" font-family="sans-serif" font-size="9.67741935483871" opacity="1" fill="#000000" transform="rotate(270, 5, 160)">
SOC (%)
</text>
<text x="275" y="355" dy="-0.5ex" text-anchor="middle" font-family="sans-serif" font-size="9.67741935483871" opacity="1" fill="#000000">
Tempo (h)
</text>
<line opacity="0.2" stroke="#000000" stroke-width="1" x1="78" y1="314" x2="78" y2="5"/>
<line opacity="0.2" stroke="#000000" stroke-width="1" x1="119" y1="314" x2="119" y2="5"/>
<line opacity="0.2" stroke="#000000" stroke-width="1" x1="159" y1="314" x2="159" y2="5"/>
<line opacity="0.2" stroke="#000000" stroke-width="1" x1="200" y1="314" x2="200" y2="5"/>
<line opacity="0.2" stroke="#000000" stroke-width="1" x1="241" y1="314" x2="241" y2="5"/>
<line opacity="0.2" stroke="#000000" stroke-width="1" x1="281" y1="314" x2="281" y2="5"/>
<line opacity="0.2" stroke="#000000" stroke-width="1" x1="322" y1="314" x2="322" y2="5"/>
<line opacity="0.2" stroke="#000000" stroke-width="1" x1="363" y1="314" x2="363" y2="5"/>
<line opacity="0.2" stroke="#000000" stroke-width="1" x1="403" y1="314" x2="403" y2="5"/>
<line opacity="0.2" stroke="#000000" stroke-width="1" x1="444" y1="314" x2="444" y2="5"/>
<line opacity="0.2" stroke="#000000" stroke-width="1" x1="484" y1="314" x2="484" y2="5"/>
<line opacity="0.2" stroke="#000000" stroke-width="1" x1="45" y1="314" x2="504" y2="314"/>
<line opacity="0.2" stroke="#000000" stroke-width="1" x1="45" y1="284" x2="504" y2="284"/>
<line opacity="0.2" stroke="#000000" stroke-width="1" x1="45" y1="253" x2="504" y2="253"/>
<line opacity="0.2" stroke="#000000" stroke-width="1" x1="45" y1="222" x2="504" y2="222"/>
<line opacity="0.2" stroke="#000000" stroke-width="1" x1="45" y1="191" x2="504" y2="191"/>
<line opacity="0.2" stroke="#000000" stroke-width="1" x1="45" y1="160" x2="504" y2="160"/>
<line opacity="0.2" stroke="#000000" stroke-width="1" x1="45" y1="129" x2="504" y2="129"/>
<line opacity="0.2" stroke="#000000" stroke-width="1" x1="45" y1="98" x2="504" y2="98"/>
<line opacity="0.2" stroke="#000000" stroke-width="1" x1="45" y1="67" x2="504" y2="67"/>
<line opacity="0.2" stroke="#000000" stroke-width="1" x1="45" y1="36" x2="504" y2="36"/>
<line opacity="0.2" stroke="#000000" stroke-width="1" x1="45" y1="5" x2="504" y2="5"/>
<polyline fill="none" opacity="1" stroke="#000000" stroke-width="1" points="44,5 44,314 "/>
<text x="35" y="314" dy="0.5ex" text-anchor="end" font-family="sans-serif" font-size="9.67741935483871" opacity="1" fill="#000000">
0.0
</text>
<polyline fill="none" opacity="1" stroke="#000000" stroke-width="1" points="39,314 44,314 "/>
<text x="35" y="284" dy="0.5ex" text-anchor="end" font-family="sans-serif" font-size="9.67741935483871" opacity="1" fill="#000000">
10.0
</text>
<polyline fill="none" opacity="1" stroke="#000000" stroke-width="1" points="39,284 44,284 "/>
<text x="35" y="253" dy="0.5ex" text-anchor="end" font-family="sans-serif" font-size="9.67741935483871" opacity="1" fill="#000000">
20.0
</text>
<polyline fill="none" opacity="1" stroke="#000000" stroke-width="1" points="39,253 44,253 "/>
<text x="35" y="222" dy="0.5ex" text-anchor="end" font-family="sans-serif" font-size="9.67741935483871" opacity="1" fill="#000000">
30.0
</text>
<polyline fill="none" opacity="1" stroke="#000000" stroke-width="1" points="39,222 44,222 "/>
<text x="35" y="191" dy="0.5ex" text-anchor="end" font-family="sans-serif" font-size="9.67741935483871" opacity="1" fill="#000000">
40.0
</text>
<polyline fill="none" opacity="1" stroke="#000000" stroke-width="1" points="39,191 44,191 "/>
<text x="35" y="160" dy="0.5ex" text-anchor="end" font-family="sans-serif" font-size="9.67741935483871" opacity="1" fill="#000000">
50.0
</text>
<polyline fill="none" opacity="1" stroke="#000000" stroke-width="1" points="39,160 44,160 "/>
<text x="35" y="129" dy="0.5ex" text-anchor="end" font-family="sans-serif" font-size="9.67741935483871" opacity="1" fill="#000000">
60.0
</text>
<polyline fill="none" opacity="1" stroke="#000000" stroke-width="1" points="39,129 44,129 "/>
<text x="35" y="98" dy="0.5ex" text-anchor="end" font-family="sans-serif" font-size="9.67741935483871" opacity="1" fill="#000000">
70.0
</text>
<polyline fill="none" opacity="1" stroke="#000000" stroke-width="1" points="39,98 44,98 "/>
<text x="35" y="67" dy="0.5ex" text-anchor="end" font-family="sans-serif" font-size="9.67741935483871" opacity="1" fill="#000000">
80.0
</text>
<polyline fill="none" opacity="1" stroke="#000000" stroke-width="1" points="39,67 44,67 "/>
<text x="35" y="36" dy="0.5ex" text-anchor="end" font-family="sans-serif" font-size="9.67741935483871" opacity="1" fill="#000000">
90.0
</text>
<polyline fill="none" opacity="1" stroke="#000000" stroke-width="1" points="39,36 44,36 "/>
<text x="35" y="5" dy="0.5ex" text-anchor="end" font-family="sans-serif" font-size="9.67741935483871" opacity="1" fill="#000000">
100.0
</text>
<polyline fill="none" opacity="1" stroke="#000000" stroke-width="1" points="39,5 44,5 "/>
<polyline fill="none" opacity="1" stroke="#000000" stroke-width="1" points="45,315 504,315 "/>
<text x="78" y="325" dy="0.76em" text-anchor="middle" font-family="sans-serif" font-size="9.67741935483871" opacity="1" fill="#000000">
0.5
</text>
<polyline fill="none" opacity="1" stroke="#000000" stroke-width="1" points="78,315 78,320 "/>
<text x="119" y="325" dy="0.76em" text-anchor="middle" font-family="sans-serif" font-size="9.67741935483871" opacity="1" fill="#000000">
1.0
</text>
<polyline fill="none" opacity="1" stroke="#000000" stroke-width="1" points="119,315 119,320 "/>
<text x="159" y="325" dy="0.76em" text-anchor="middle" font-family="sans-serif" font-size="9.67741935483871" opacity="1" fill="#000000">
1.5
</text>
<polyline fill="none" opacity="1" stroke="#000000" stroke-width="1" points="159,315 159,320 "/>
<text x="200" y="325" dy="0.76em" text-anchor="middle" font-family="sans-serif" font-size="9.67741935483871" opacity="1" fill="#000000">
2.0
</text>
<polyline fill="none" opacity="1" stroke="#000000" stroke-width="1" points="200,315 200,320 "/>
<text x="241" y="325" dy="0.76em" text-anchor="middle" font-family="sans-serif" font-size="9.67741935483871" opacity="1" fill="#000000">
2.5
</text>
<polyline fill="none" opacity="1" stroke="#000000" stroke-width="1" points="241,315 241,320 "/>
<text x="281" y="325" dy="0.76em" text-anchor="middle" font-family="sans-serif" font-size="9.67741935483871" opacity="1" fill="#000000">
3.0
</text>
<polyline fill="none" opacity="1" stroke="#000000" stroke-width="1" points="281,315 281,320 "/>
<text x="322" y="325" dy="0.76em" text-anchor="middle" font-family="sans-serif" font-size="9.67741935483871" opacity="1" fill="#000000">
3.5
</text>
<polyline fill="none" opacity="1" stroke="#000000" stroke-width="1" points="322,315 322,320 "/>
<text x="363" y="325" dy="0.76em" text-anchor="middle" font-family="sans-serif" font-size="9.67741935483871" opacity="1" fill="#000000">
4.0
</text>
<polyline fill="none" opacity="1" stroke="#000000" stroke-width="1" points="363,315 363,320 "/>
<text x="403" y="325" dy="0.76em" text-anchor="middle" font-family="sans-serif" font-size="9.67741935483871" opacity="1" fill="#000000">
4.5
</text>
<polyline fill="none" opacity="1" stroke="#000000" stroke-width="1" points="403,315 403,320 "/>
<text x="444" y="325" dy="0.76em" text-anchor="middle" font-family="sans-serif" font-size="9.67741935483871" opacity="1" fill="#000000">
5.0
</text>
<polyline fill="none" opacity="1" stroke="#000000" stroke-width="1" points="444,315 444,320 "/>
<text x="484" y="325" dy="0.76em" text-anchor="middle" font-family="sans-serif" font-size="9.67741935483871" opacity="1" fill="#000000">
5.5
</text>
<polyline fill="none" opacity="1" stroke="#000000" stroke-width="1" points="484,315 484,320 "/>
<text x="545" y="160" dy="0.76em" text-anchor="middle" font-family="sans-serif" font-size="9.67741935483871" opacity="1" fill="#000000" transform="rotate(90, 545, 160)">
Tensão (V)
</text>
<polyline fill="none" opacity="1" stroke="#000000" stroke-width="1" points="505,5 505,315 "/>
<text x="515" y="293" dy="0.5ex" text-anchor="start" font-family="sans-serif" font-size="9.67741935483871" opacity="1" fill="#000000">
3.55
</text>
<polyline fill="none" opacity="1" stroke="#000000" stroke-width="1" points="505,293 510,293 "/>
<text x="533" y="266" dy="0.5ex" text-anchor="end" font-family="sans-serif" font-size="9.67741935483871" opacity="1" fill="#000000">
3.6
</text>
<polyline fill="none" opacity="1" stroke="#000000" stroke-width="1" points="505,266 510,266 "/>
<text x="515" y="240" dy="0.5ex" text-anchor="start" font-family="sans-serif" font-size="9.67741935483871" opacity="1" fill="#000000">
3.65
</text>
<polyline fill="none" opacity="1" stroke="#000000" stroke-width="1" points="505,240 510,240 "/>
<text x="533" y="213" dy="0.5ex" text-anchor="end" font-family="sans-serif" font-size="9.67741935483871" opacity="1" fill="#000000">
3.7
</text>
<polyline fill="none" opacity="1" stroke="#000000" stroke-width="1" points="505,213 510,213 "/>
<text x="515" y="187" dy="0.5ex" text-anchor="start" font-family="sans-serif" font-size="9.67741935483871" opacity="1" fill="#000000">
3.75
</text>
<polyline fill="none" opacity="1" stroke="#000000" stroke-width="1" points="505,187 510,187 "/>
<text x="533" y="160" dy="0.5ex" text-anchor="end" font-family="sans-serif" font-size="9.67741935483871" opacity="1" fill="#000000">
3.8
</text>
<polyline fill="none" opacity="1" stroke="#000000" stroke-width="1" points="505,160 510,160 "/>
<text x="515" y="133" dy="0.5ex" text-anchor="start" font-family="sans-serif" font-size="9.67741935483871" opacity="1" fill="#000000">
3.85
</text>
<polyline fill="none" opacity="1" stroke="#000000" stroke-width="1" points="505,133 510,133 "/>
<text x="533" y="107" dy="0.5ex" text-anchor="end" font-family="sans-serif" font-size="9.67741935483871" opacity="1" fill="#000000">
3.9
</text>
<polyline fill="none" opacity="1" stroke="#000000" stroke-width="1" points="505,107 510,107 "/>
<text x="515" y="80" dy="0.5ex" text-anchor="start" font-family="sans-serif" font-size="9.67741935483871" opacity="1" fill="#000000">
3.95
</text>
<polyline fill="none" opacity="1" stroke="#000000" stroke-width="1" points="505,80 510,80 "/>
<text x="533" y="54" dy="0.5ex" text-anchor="end" font-family="sans-serif" font-size="9.67741935483871" opacity="1" fill="#000000">
4.0
</text>
<polyline fill="none" opacity="1" stroke="#000000" stroke-width="1" points="505,54 510,54 "/>
<text x="515" y="27" dy="0.5ex" text-anchor="start" font-family="sans-serif" font-size="9.67741935483871" opacity="1" fill="#000000">
4.05
</text>
<polyline fill="none" opacity="1" stroke="#000000" stroke-width="1" points="505,27 510,27 "/>
<polyline fill="none" opacity="1" stroke="#FF0000" stroke-width="1" points="45,11 46,12 47,13 49,14 50,15 51,15 53,16 54,17 55,18 57,19 58,20 59,21 61,22 62,23 63,24 65,24 66,25 68,26 69,27 70,28 72,29 73,30 74,31 76,32 77,33 78,33 80,34 81,35 82,36 84,37 85,38 86,39 88,40 89,41 91,41 92,42 93,43 95,44 96,45 97,46 99,47 100,48 101,49 103,50 104,50 105,51 107,52 108,53 110,54 111,55 112,56 114,57 115,58 116,59 118,59 119,60 120,61 122,62 123,63 124,64 126,65 127,66 128,67 130,68 131,68 133,69 134,70 135,71 137,72 138,73 139,74 141,75 142,76 143,77 145,77 146,78 147,79 149,80 150,81 151,82 153,83 154,84 156,85 157,85 158,86 160,87 161,88 162,89 164,90 165,91 166,92 168,93 169,94 170,94 172,95 173,96 174,97 176,98 177,99 179,100 180,101 181,102 183,103 184,103 185,104 187,105 188,106 189,107 191,108 192,109 193,110 195,111 196,112 197,112 199,113 200,114 202,115 203,116 204,117 206,118 207,119 208,120 210,121 211,121 212,122 214,123 215,124 216,125 218,126 219,127 221,128 222,129 223,129 225,130 226,131 227,132 229,133 230,134 231,135 233,136 234,137 235,138 237,138 238,139 239,140 241,141 242,142 244,143 245,144 246,145 248,146 249,147 250,147 252,148 253,149 254,150 256,151 257,152 258,153 260,154 261,155 262,156 264,156 265,157 267,158 268,159 269,160 271,161 272,162 273,163 275,164 276,165 277,165 279,166 280,167 281,168 283,169 284,170 285,171 287,172 288,173 290,174 291,174 292,175 294,176 295,177 296,178 298,179 299,180 300,181 302,182 303,182 304,183 306,184 307,185 309,186 310,187 311,188 313,189 314,190 315,191 317,191 318,192 319,193 321,194 322,195 323,196 325,197 326,198 327,199 329,200 330,200 332,201 333,202 334,203 336,204 337,205 338,206 340,207 341,208 342,209 344,209 345,210 346,211 348,212 349,213 350,214 352,215 353,216 355,217 356,217 357,218 359,219 360,220 361,221 363,222 364,223 365,224 367,225 368,226 369,226 371,227 372,228 374,229 375,230 376,231 378,232 379,233 380,234 382,235 383,235 384,236 386,237 387,238 388,239 390,240 391,241 392,242 394,243 395,244 397,244 398,245 399,246 401,247 402,248 403,249 405,250 406,251 407,252 409,253 410,253 411,254 413,255 414,256 415,257 417,258 418,259 420,260 421,261 422,261 424,262 425,263 426,264 428,265 429,266 430,267 432,268 433,269 434,270 436,270 437,271 438,272 440,273 441,274 443,275 444,276 445,277 447,278 448,279 449,279 451,280 452,281 453,282 455,283 456,284 457,285 459,286 460,287 461,288 463,288 464,289 466,290 467,291 468,292 470,293 471,294 472,295 474,296 475,297 476,297 478,298 479,299 480,300 482,301 483,302 485,303 486,304 487,305 489,306 490,306 491,307 493,308 494,309 495,310 497,311 498,312 499,313 501,314 502,314 "/>
<polyline fill="none" opacity="1" stroke="#0000FF" stroke-width="1" points="45,16 46,16 47,15 49,15 50,15 51,15 53,15 54,16 55,16 57,17 58,17 59,18 61,19 62,19 63,20 65,21 66,22 68,23 69,24 70,25 72,26 73,27 74,29 76,29 77,30 78,31 80,32 81,33 82,34 84,35 85,36 86,37 88,39 89,40 91,41 92,42 93,43 95,44 96,44 97,46 99,47 100,47 101,49 103,50 104,51 105,52 107,53 108,53 110,54 111,55 112,56 114,57 115,59 116,59 118,60 119,61 120,62 122,63 123,63 124,64 126,65 127,66 128,67 130,68 131,69 133,69 134,70 135,72 137,72 138,73 139,74 141,74 142,75 143,76 145,77 146,78 147,78 149,79 150,83 151,84 153,85 154,85 156,86 157,86 158,87 160,88 161,89 162,89 164,90 165,90 166,92 168,93 169,93 170,94 172,94 173,96 174,96 176,98 177,99 179,99 180,100 181,101 183,101 184,102 185,103 187,104 188,105 189,105 191,107 192,107 193,108 195,109 196,110 197,111 199,111 200,112 202,113 203,114 204,115 206,115 207,116 208,117 210,119 211,119 212,120 214,121 215,121 216,122 218,124 219,124 221,125 222,126 223,127 225,128 226,129 227,130 229,131 230,132 231,132 233,133 234,135 235,136 237,136 238,137 239,138 241,139 242,140 244,141 245,142 246,143 248,144 249,145 250,146 252,147 253,148 254,149 256,150 257,151 258,152 260,152 261,153 262,154 264,155 265,156 267,157 268,158 269,159 271,160 272,161 273,162 275,163 276,164 277,165 279,166 280,166 281,167 283,168 284,169 285,169 287,170 288,171 290,172 291,173 292,174 294,175 295,176 296,176 298,177 299,178 300,179 302,180 303,181 304,181 306,182 307,183 309,184 310,185 311,186 313,186 314,187 315,189 317,189 318,190 319,191 321,192 322,193 323,193 325,194 326,195 327,196 329,197 330,198 332,199 333,200 334,201 336,201 337,202 338,203 340,204 341,205 342,206 344,207 345,208 346,209 348,210 349,211 350,212 352,213 353,215 355,216 356,217 357,218 359,218 360,220 361,221 363,222 364,223 365,224 367,225 368,225 369,227 371,228 372,228 374,230 375,231 376,232 378,232 379,233 380,234 382,235 383,236 384,237 386,238 387,239 388,241 390,242 391,243 392,244 394,245 395,246 397,247 398,248 399,249 401,250 402,251 403,252 405,253 406,254 407,255 409,256 410,257 411,257 413,258 414,267 415,265 417,261 418,262 420,262 421,263 422,264 424,264 425,265 426,266 428,267 429,268 430,268 432,269 433,269 434,270 436,271 437,271 438,272 440,273 441,274 443,275 444,275 445,276 447,277 448,277 449,278 451,279 452,279 453,280 455,281 456,282 457,282 459,283 460,284 461,285 463,286 464,287 466,288 467,289 468,290 470,291 471,292 472,293 474,295 475,297 476,298 478,299 479,301 480,302 482,303 483,305 485,306 486,307 487,309 489,310 490,312 491,313 493,314 494,315 495,315 497,315 498,315 499,315 501,315 502,315 "/>
<polyline fill="none" opacity="1" stroke="#000000" stroke-width="1" points="45,5 46,21 47,29 49,35 50,41 51,45 53,48 54,52 55,54 57,57 58,60 59,62 61,64 62,65 63,67 65,69 66,71 68,72 69,74 70,75 72,76 73,78 74,79 76,81 77,81 78,82 80,83 81,84 82,85 84,86 85,87 87,87 88,88 89,89 91,90 92,90 93,91 95,91 96,92 97,93 99,94 100,94 101,94 103,95 104,96 106,96 107,97 108,97 110,97 111,98 112,98 114,99 115,99 116,100 118,100 119,101 120,101 122,102 123,102 125,102 126,103 127,103 129,104 130,104 131,104 133,105 134,105 135,105 137,106 138,106 139,106 141,107 142,107 144,107 145,107 146,108 148,108 149,108 150,109 152,111 153,111 154,111 156,111 157,112 158,112 160,112 161,112 163,113 164,113 165,113 167,113 168,114 169,114 171,114 172,115 173,115 175,115 176,115 177,116 179,116 180,117 182,117 183,118 184,118 186,118 187,118 188,119 190,119 191,119 192,120 194,120 195,120 196,121 198,121 199,121 201,122 202,122 203,122 205,122 206,123 207,123 209,123 210,124 211,124 213,124 214,125 215,125 217,125 218,126 220,127 221,127 222,127 224,128 225,128 226,129 228,129 229,129 230,130 232,130 233,130 234,131 236,131 237,132 239,132 240,132 241,133 243,133 244,134 245,134 247,135 248,136 249,136 251,137 252,137 253,137 255,138 256,138 258,139 259,139 260,140 262,140 263,141 264,141 266,142 267,142 268,143 270,144 271,144 272,145 274,145 275,146 277,147 278,147 279,148 281,148 282,149 283,149 285,150 286,150 287,151 289,151 290,152 291,153 293,153 294,154 296,155 297,155 298,156 300,156 301,157 302,158 304,158 305,159 306,159 308,160 309,161 310,162 312,162 313,163 315,163 316,164 317,165 319,165 320,166 321,166 323,167 324,168 325,168 327,169 328,170 329,171 331,171 332,172 334,173 335,173 336,174 338,174 339,175 340,176 342,176 343,177 344,178 346,179 347,180 348,180 350,181 351,182 352,182 354,183 355,184 357,185 358,185 359,186 361,187 362,188 363,188 365,189 366,190 367,190 369,191 370,191 371,192 373,193 374,193 376,194 377,195 378,196 380,196 381,197 382,198 384,198 385,199 386,199 388,200 389,201 391,202 392,202 393,203 395,204 396,205 397,205 399,206 400,207 401,207 403,208 404,209 405,210 407,210 408,211 409,212 411,213 412,213 414,214 415,215 416,223 418,216 419,216 420,217 422,217 423,218 424,218 426,219 427,220 428,220 430,221 431,222 433,222 434,223 435,223 437,224 438,224 439,225 441,225 442,226 443,227 445,227 446,228 447,228 449,230 450,230 452,231 453,231 454,232 456,233 457,233 458,234 460,235 461,236 462,237 464,237 465,239 466,240 468,241 469,242 471,243 472,244 473,246 475,248 476,250 477,252 479,254 480,256 481,258 483,260 484,262 485,265 487,268 488,270 490,274 491,277 492,280 494,284 495,287 496,291 498,294 499,297 500,302 502,306 503,311 "/>
<rect x="388" y="10" width="112" height="59" opacity="1" fill="#FFFFFF" stroke="none"/>
<rect x="388" y="10" width="112" height="59" opacity="1" fill="none" stroke="#000000"/>
<text x="428" y="20" dy="0.76em" text-anchor="start" font-family="sans-serif" font-size="9.67741935483871" opacity="1" fill="#000000">
SOC correto
</text>
<text x="428" y="35" dy="0.76em" text-anchor="start" font-family="sans-serif" font-size="9.67741935483871" opacity="1" fill="#000000">
SOC estimado
</text>
<text x="428" y="50" dy="0.76em" text-anchor="start" font-family="sans-serif" font-size="9.67741935483871" opacity="1" fill="#000000">
Tensão bat.
</text>
<polyline fill="none" opacity="1" stroke="#FF0000" stroke-width="1" points="398,24 418,24 "/>
<polyline fill="none" opacity="1" stroke="#0000FF" stroke-width="1" points="398,39 418,39 "/>
<polyline fill="none" opacity="1" stroke="#000000" stroke-width="1" points="398,54 418,54 "/>
</svg>
